<svg xmlns="http://www.w3.org/2000/svg" aria-hidden="true" style="position:absolute;width:0;height:0;overflow:hidden"><defs><symbol id="linkedin" viewBox="0 0 34 34"><path d="M31.992 32v-.001H32V20.263c0-5.741-1.236-10.164-7.948-10.164-3.227 0-5.392 1.771-6.276 3.449h-.093v-2.913h-6.364v21.364h6.627V21.42c0-2.785.528-5.479 3.977-5.479 3.399 0 3.449 3.179 3.449 5.657v10.401h6.62zM.528 10.636h6.635V32H.528V10.636zM3.843 0C1.722 0 0 1.721 0 3.843s1.721 3.879 3.843 3.879c2.121 0 3.843-1.757 3.843-3.879A3.846 3.846 0 0 0 3.843 0z"/></symbol>

<symbol id="mail" viewBox="0 0 24 24">
            <path stroke-linejoin="round" stroke-linecap="round" stroke-miterlimit="4" stroke-width="1.7143"
                d="M21.5 18l-6.643-6M9.143 12l-6.643 6M2 7l8.165 5.715c0.661 0.463 0.992 0.694 1.351 0.784 0.318 0.079 0.65 0.079 0.967 0 0.36-0.090 0.69-0.321 1.351-0.784l8.165-5.715M6.8 20h10.4c1.68 0 2.52 0 3.162-0.327 0.565-0.288 1.023-0.747 1.311-1.311 0.327-0.642 0.327-1.482 0.327-3.162v-6.4c0-1.68 0-2.52-0.327-3.162-0.288-0.564-0.747-1.023-1.311-1.311-0.642-0.327-1.482-0.327-3.162-0.327h-10.4c-1.68 0-2.52 0-3.162 0.327-0.564 0.288-1.023 0.747-1.311 1.311-0.327 0.642-0.327 1.482-0.327 3.162v6.4c0 1.68 0 2.52 0.327 3.162 0.288 0.565 0.747 1.023 1.311 1.311 0.642 0.327 1.482 0.327 3.162 0.327z">
            </path>
        </symbol>
<symbol id="phone" viewBox="0 0 24 32">
<path d="M19.635 18.487l-2.451-0.28c-0.067-0.008-0.145-0.013-0.223-0.013-0.531 0-1.012 0.215-1.36 0.564l-1.775 1.775c-2.752-1.42-4.94-3.607-6.322-6.278l-0.038-0.081 1.787-1.785c0.347-0.347 0.562-0.827 0.562-1.358 0-0.079-0.005-0.156-0.014-0.233l0.001 0.009-0.28-2.432c-0.115-0.966-0.93-1.708-1.918-1.708-0.001 0-0.002 0-0.002 0h-1.669c-1.091 0-1.997 0.907-1.929 1.997 0.511 8.24 7.101 14.821 15.332 15.333 1.091 0.067 1.997-0.84 1.997-1.931v-1.669c0-0.003 0-0.007 0-0.011 0-0.981-0.739-1.789-1.69-1.899l-0.009-0.001z"></path>
</symbol><symbol id="telegram" viewBox="0 0 32 32">
<path d="M16 2.667c-7.364 0-13.333 5.97-13.333 13.333s5.97 13.333 13.333 13.333v0c7.364 0 13.333-5.97 13.333-13.333s-5.97-13.333-13.333-13.333v0z"></path>
<path fill="#fff" style="fill: var(--color2, #fff)" d="M22.633 10l-2.497 12.751c0 0-0.107 0.583-0.83 0.583-0.384 0-0.582-0.183-0.582-0.183l-5.409-4.489-2.647-1.334-3.397-0.903c0 0-0.605-0.175-0.605-0.675 0-0.417 0.622-0.615 0.622-0.615l14.211-5.645c-0.001-0.001 0.434-0.157 0.751-0.156 0.195 0 0.417 0.083 0.417 0.333 0 0.167-0.033 0.333-0.033 0.333z"></path>
<path fill="#b0bec5" style="fill: var(--color3, #b0bec5)" d="M15.333 20.337l-2.284 2.249c0 0-0.099 0.077-0.232 0.080-0.046 0.001-0.095-0.006-0.146-0.029l0.643-3.977 2.019 1.676z"></path>
<path fill="#cfd8dc" style="fill: var(--color4, #cfd8dc)" d="M19.931 12.131c-0.113-0.147-0.321-0.173-0.467-0.062l-8.797 5.265c0 0 1.404 3.928 1.618 4.608s0.387 0.697 0.387 0.697l0.643-3.977 6.555-6.064c0.147-0.111 0.174-0.32 0.063-0.467z"></path>
</symbol>
</defs></svg>